<svg xmlns="http://www.w3.org/2000/svg" viewBox="0 0 32 32" fill="none">
  <defs>
    <linearGradient id="fav-bg" x1="0" y1="0" x2="32" y2="32" gradientUnits="userSpaceOnUse">
      <stop stop-color="#4338ca"/>
      <stop offset="0.5" stop-color="#7c3aed"/>
      <stop offset="1" stop-color="#db2777"/>
    </linearGradient>
  </defs>
  <rect width="32" height="32" rx="9" fill="url(#fav-bg)"/>
  <path
    d="M14.5 12.5c0-1.6-1.8-2.3-3.7-2.3s-3.7.8-3.7 2.4 1.6 2.1 3.7 2.4 3.7 1 3.7 2.6-1.8 2.4-3.7 2.4-3.7-.8-3.7-2.3"
    stroke="#fff"
    stroke-width="1.85"
    stroke-linecap="round"
    fill="none"
  />
  <path
    d="M17.5 10v12M17.5 10h3.2c2 0 3.1 1.1 3.1 2.7s-1 2.5-2.5 2.6l3.2 4.7"
    stroke="#fff"
    stroke-width="1.85"
    stroke-linecap="round"
    stroke-linejoin="round"
    fill="none"
  />
  <path d="M24 7v5.2l2-1.2 2 1.2V7h-4z" fill="#fbbf24"/>
</svg>
