<svg xmlns="http://www.w3.org/2000/svg" viewBox="0 0 56 56" fill="none" role="img" aria-label="SR's Catalogue">
  <defs>
    <linearGradient id="sr-bg" x1="6" y1="4" x2="50" y2="52" gradientUnits="userSpaceOnUse">
      <stop stop-color="#4338ca"/>
      <stop offset="0.5" stop-color="#7c3aed"/>
      <stop offset="1" stop-color="#db2777"/>
    </linearGradient>
    <linearGradient id="sr-shine" x1="28" y1="6" x2="28" y2="28" gradientUnits="userSpaceOnUse">
      <stop stop-color="#ffffff" stop-opacity="0.24"/>
      <stop offset="1" stop-color="#ffffff" stop-opacity="0"/>
    </linearGradient>
  </defs>
  <rect width="56" height="56" rx="16" fill="url(#sr-bg)"/>
  <rect x="1.5" y="1.5" width="53" height="53" rx="14.5" stroke="#ffffff" stroke-opacity="0.14"/>
  <ellipse cx="28" cy="15" rx="17" ry="11" fill="url(#sr-shine)"/>
  <!-- S -->
  <path
    d="M25.5 21.5c0-2.8-3.2-4-6.5-4s-6.5 1.4-6.5 4.2 2.8 3.6 6.5 4.2 6.5 1.8 6.5 4.6-3.2 4.2-6.5 4.2-6.5-1.4-6.5-4"
    stroke="#ffffff"
    stroke-width="3.1"
    stroke-linecap="round"
    fill="none"
  />
  <!-- R -->
  <path
    d="M31.5 18.5v17.5M31.5 18.5h5.6c3.4 0 5.4 1.9 5.4 4.6 0 2.5-1.7 4.3-4.4 4.6l5.5 8.3"
    stroke="#ffffff"
    stroke-width="3.1"
    stroke-linecap="round"
    stroke-linejoin="round"
    fill="none"
  />
  <!-- Bookmark -->
  <path
    d="M42 11v9.2l3.5-2.1 3.5 2.1V11H42Z"
    fill="#fbbf24"
    stroke="#fef9c3"
    stroke-width="0.6"
    stroke-linejoin="round"
  />
</svg>
